<?xml version="1.0"?>
<svg width="1000" height="1000" xmlns="http://www.w3.org/2000/svg">
<title>ET Logo</title>
<path style="display:inline;fill:#ffc931;stroke-width:22" d="M 0,0 H 1000 V 1000 H 0 Z" />
<g style="font-weight:bold;font-size:784.958px;font-family:'Mrs Eaves OT';-inkscape-font-specification:'Mrs Eaves OT Bold';font-variant-ligatures:no-common-ligatures;fill:#000;stroke-width:105.299">
 <path d="m 98.375,264.51269 v 31.86915 c 28.71181,0 46.50361,4.68412 56.17383,12.71485 10.22073,8.48789 12.25976,25.56237 12.25976,42.89844 v 295.96875 c 0,13.45016 -2.487,30.42175 -9.89258,40.0703 -9.01305,11.74292 -29.91571,15.50195 -58.54059,15.50195 v 31.95117 h 419.6851 l 3.80665,-154.92187 h -32.61524 c -6.45692,39.70744 -16.2432,62.64143 -31.61328,81.71094 -18.83888,23.37322 -43.56662,34.68164 -85.83594,34.68164 h -37.8457 c -68.06797,0 -67.74219,-19.72119 -67.74219,-78.2168 V 508.03418 h 48.6326 c 48.91232,0 57.40452,9.81629 61.15451,59.08595 h 31.95313 V 410.41894 h -33.35938 c -4.05778,52.78821 -12.45841,59.10744 -65.74826,59.10744 H 266.21484 V 303.06349 h 88.23633 c 48.81232,0 63.92129,4.28165 78.80469,19.63476 12.23763,12.62386 21.48229,31.37699 30.22656,64.41236 l 36.91602,-2.5e-4 -3.01172,-122.59766 z"/>
 <path d="m 467.3086,264.51269 v 122.59767 h 33.08984 c 2.2859,-30.32683 16.19171,-52.07821 28.78516,-64.95898 13.61253,-13.92316 30.0317,-19.0879 67.59374,-19.08789 h 37.98633 v 344.90039 c 0,13.45003 -2.48703,30.42183 -9.89257,40.0703 -9.01302,11.74285 -16.50422,15.50195 -45.12891,15.50195 v 31.95117 h 209.44922 v -31.95117 c -28.62469,0 -36.11591,-3.7591 -45.12891,-15.50195 -7.40554,-9.64847 -9.89258,-26.62027 -9.89258,-40.0703 V 303.06349 h 37.98633 c 37.56204,0 53.9812,5.16473 67.59375,19.08789 12.59345,12.88077 26.49926,34.63215 28.78516,64.95898 H 901.625 V 264.51269 Z" />
</g>
</svg>
